<svg xmlns="http://www.w3.org/2000/svg" width="130" height="80" viewBox="0 0 130 80">
<defs>
    <style>
      .cls-1 {
        fill: #0f355d;
        fill-rule: evenodd;
      }
    </style>
  </defs>
  <path id="text" class="cls-1" d="M24.711,26.462a2.606,2.606,0,0,1-1.784.659,2.854,2.854,0,0,1-2.285-1.037,5.4,5.4,0,0,1-.879-3.48,5.04,5.04,0,0,1,.892-3.331,2.931,2.931,0,0,1,2.325-1.028A2.662,2.662,0,0,1,25.7,20.406l2.575-.615a5.084,5.084,0,0,0-1.318-2.373,5.359,5.359,0,0,0-3.841-1.4,5.7,5.7,0,0,0-4.368,1.78,7.043,7.043,0,0,0-1.661,5,6.709,6.709,0,0,0,1.652,4.794,5.542,5.542,0,0,0,4.219,1.753,5.5,5.5,0,0,0,3.423-1.024,5.657,5.657,0,0,0,1.929-3.133l-2.522-.8A3.83,3.83,0,0,1,24.711,26.462Zm7.471,2.689a3.51,3.51,0,0,1-.633,1.288,1.55,1.55,0,0,1-1.274.505,5.468,5.468,0,0,1-1.046-.114l0.22,1.934a6.551,6.551,0,0,0,1.4.149,4.889,4.889,0,0,0,1.261-.149,2.96,2.96,0,0,0,.94-0.417,2.709,2.709,0,0,0,.677-0.7,6.639,6.639,0,0,0,.62-1.248l0.589-1.626,3.3-8.982H35.671l-2.18,6.627-2.232-6.627H28.631Zm6.742-.026h2.109V22.981L43.2,29.125h2.109l2.276-6.144v6.144h2.1V19.791h-3.05l-2.338,6.5-2.32-6.5H38.924v9.334ZM57.9,20.314a4.509,4.509,0,0,0-2.711-.734,4.339,4.339,0,0,0-3.3,1.288,5.02,5.02,0,0,0-1.222,3.6,5.008,5.008,0,0,0,1.217,3.577,4.272,4.272,0,0,0,3.265,1.292,4.489,4.489,0,0,0,2.874-.852,4.3,4.3,0,0,0,1.45-2.523l-2.426-.413a2.4,2.4,0,0,1-.633,1.375,1.664,1.664,0,0,1-1.151.4,1.832,1.832,0,0,1-1.5-.686,3.776,3.776,0,0,1-.558-2.347,3.265,3.265,0,0,1,.549-2.131,1.845,1.845,0,0,1,1.472-.637,1.685,1.685,0,0,1,1.129.369,1.767,1.767,0,0,1,.558,1.1l2.435-.439A4.066,4.066,0,0,0,57.9,20.314Zm2.651,8.811h5.3a4.685,4.685,0,0,0,2.782-.681,2.362,2.362,0,0,0,.927-2.035,2.648,2.648,0,0,0-.518-1.622,2.356,2.356,0,0,0-1.3-.91,9.11,9.11,0,0,0-2.241-.211H63.025V19.791h-2.47v9.334Zm2.47-3.937h1.608a4.7,4.7,0,0,1,1.859.255,0.942,0.942,0,0,1,.523.932,1.237,1.237,0,0,1-.3.835,1.886,1.886,0,0,1-1.384.352h-2.3V25.188Zm7.726,3.938h2.461V25.144a1.25,1.25,0,0,1,.822.233,3.29,3.29,0,0,1,.655,1.05l1.231,2.7h2.654l-1.38-2.575q-0.053-.1-0.1-0.185a3.392,3.392,0,0,0-1.978-2.03,2.314,2.314,0,0,0,1.239-1.591,2.551,2.551,0,0,1,.589-1.151,2.633,2.633,0,0,1,1.248-.185l-0.009-1.635q-0.695-.044-0.976-0.044a2.558,2.558,0,0,0-1.477.387A3.563,3.563,0,0,0,74.7,21.883a5,5,0,0,1-.615,1.345,1.273,1.273,0,0,1-.87.378V19.791H70.751v9.334Zm8.324,0h2.373l3.85-5.968v5.968h2.373V19.791H85.245l-3.8,5.862V19.791H79.075v9.334Zm10.345,0h2.373l3.85-5.968v5.968h2.373V19.791H95.591l-3.8,5.862V19.791H89.421v9.334ZM94.9,16.948a2.042,2.042,0,0,1-2.2,0A1.355,1.355,0,0,1,92.26,16h-1.2a2.787,2.787,0,0,0,.839,1.877,3,3,0,0,0,3.806,0A2.788,2.788,0,0,0,96.54,16h-1.2A1.356,1.356,0,0,1,94.9,16.948ZM25.238,48.586h2.013V44.1h-1V36.791H18.717a23.7,23.7,0,0,1-.492,5.115,5.481,5.481,0,0,1-1.046,2.2H16.168v4.482h2V46.125h7.066v2.461ZM19.6,44.1q1.081-1.415,1.23-5.282h2.988L23.805,44.1H19.6Zm13.439,0.07a1.512,1.512,0,0,1-.976.316,1.869,1.869,0,0,1-1.424-.611,2.5,2.5,0,0,1-.6-1.709h6.188a6.087,6.087,0,0,0-1.151-4.214,4.143,4.143,0,0,0-3.287-1.375,4,4,0,0,0-3.067,1.314,5.154,5.154,0,0,0-1.213,3.634,5.344,5.344,0,0,0,.923,3.217,4.176,4.176,0,0,0,3.6,1.591,4.4,4.4,0,0,0,2.562-.708,4.037,4.037,0,0,0,1.5-2.061l-2.461-.413A1.954,1.954,0,0,1,33.035,44.174Zm-2.953-3.516a2.279,2.279,0,0,1,.519-1.6,1.782,1.782,0,0,1,2.619-.031,2.378,2.378,0,0,1,.554,1.63H30.081Zm7.366,9.018h2.47v-4.7a4.722,4.722,0,0,0,1.323,1.055,3.145,3.145,0,0,0,1.4.308,3.56,3.56,0,0,0,2.769-1.3,5.315,5.315,0,0,0,1.142-3.634,5.158,5.158,0,0,0-1.134-3.551,3.559,3.559,0,0,0-2.76-1.274,3.344,3.344,0,0,0-1.7.439,3.447,3.447,0,0,0-1.213,1.143V36.791h-2.3V49.676ZM40.488,39.23a1.9,1.9,0,0,1,1.5-.7,1.822,1.822,0,0,1,1.459.712,3.374,3.374,0,0,1,.589,2.18,3.555,3.555,0,0,1-.571,2.263,1.785,1.785,0,0,1-1.433.69,1.909,1.909,0,0,1-1.52-.751,3.594,3.594,0,0,1-.624-2.325A3.11,3.11,0,0,1,40.488,39.23Zm13.386,6.9V42.144a1.163,1.163,0,0,1,.76.3,3.334,3.334,0,0,1,.584.984l1.169,2.7h2.654L57.724,43.55a3.906,3.906,0,0,0-2.083-2.215,2.341,2.341,0,0,0,1.239-1.591,2.553,2.553,0,0,1,.6-1.147,2.579,2.579,0,0,1,1.248-.189V36.773Q58,36.73,57.742,36.73a2.62,2.62,0,0,0-1.455.369,3.565,3.565,0,0,0-1.068,1.784,5.871,5.871,0,0,1-.629,1.415,0.856,0.856,0,0,1-.716.308V36.791H51.423v3.815a0.906,0.906,0,0,1-.712-0.312,5.817,5.817,0,0,1-.633-1.411,3.5,3.5,0,0,0-1.09-1.793,2.6,2.6,0,0,0-1.4-.36q-0.29,0-1.02.044v1.635a2.577,2.577,0,0,1,1.252.189,2.594,2.594,0,0,1,.593,1.147,2.34,2.34,0,0,0,1.239,1.591,3.906,3.906,0,0,0-2.083,2.215l-1.318,2.575h2.654l1.178-2.7a5.514,5.514,0,0,1,.664-1.068,1.093,1.093,0,0,1,.672-0.215v3.981h2.452Zm8.386-7.4a1.768,1.768,0,0,1,1.028-.259,2.107,2.107,0,0,1,1.327.3,1.28,1.28,0,0,1,.352,1.015v0.246a13.439,13.439,0,0,1-2.4.606,8.278,8.278,0,0,0-1.964.576,2.468,2.468,0,0,0-1.059.949,2.654,2.654,0,0,0-.378,1.411A2.6,2.6,0,0,0,60,45.554a3.18,3.18,0,0,0,2.272.782,3.877,3.877,0,0,0,1.538-.308,4.452,4.452,0,0,0,1.354-.923q0.026,0.07.088,0.29,0.14,0.483.237,0.73h2.443a5.294,5.294,0,0,1-.444-1.252,10.007,10.007,0,0,1-.119-1.815l0.026-2.883a5.093,5.093,0,0,0-.33-2.21,2.455,2.455,0,0,0-1.138-.993,5.911,5.911,0,0,0-2.461-.391,4.76,4.76,0,0,0-2.742.65,3.491,3.491,0,0,0-1.3,2l2.241,0.4A1.8,1.8,0,0,1,62.26,38.729Zm2.707,3.406a4.874,4.874,0,0,1-.1,1.2,1.547,1.547,0,0,1-.589.817,2.139,2.139,0,0,1-1.274.439,1.35,1.35,0,0,1-.984-0.378,1.211,1.211,0,0,1-.387-0.9,1.03,1.03,0,0,1,.483-0.87,4.524,4.524,0,0,1,1.345-.431,15.437,15.437,0,0,0,1.5-.378v0.492Zm4.167,3.99h5.88a3.562,3.562,0,0,0,2.364-.681,2.216,2.216,0,0,0,.8-1.771,2.364,2.364,0,0,0-.475-1.424,2.418,2.418,0,0,0-1.441-.888,2.191,2.191,0,0,0,1.591-2.136,2.121,2.121,0,0,0-.826-1.828,4.2,4.2,0,0,0-2.487-.607H69.134v9.334Zm2.487-7.752h1.591a4.028,4.028,0,0,1,1.7.251,0.873,0.873,0,0,1,.479.839,0.975,0.975,0,0,1-.514.914,3.565,3.565,0,0,1-1.666.29H71.621V38.373Zm0,3.8h1.266a5.872,5.872,0,0,1,2.153.259,1.094,1.094,0,0,1,.07,1.859,3.47,3.47,0,0,1-1.538.255H71.621V42.17Zm7.735,3.955h2.47v-3.92h3.533v3.92h2.479V36.791H85.359V40.21H81.826V36.791h-2.47v9.334Zm10.187,0h2.373l3.85-5.968v5.968h2.373V36.791H95.714l-3.8,5.862V36.791H89.544v9.334Zm10.345,0h2.373l3.85-5.968v5.968h2.373V36.791h-2.426l-3.8,5.862V36.791H99.889v9.334Zm5.476-12.177a2.043,2.043,0,0,1-2.2,0A1.355,1.355,0,0,1,102.728,33h-1.2a2.787,2.787,0,0,0,.839,1.877,3,3,0,0,0,3.806,0A2.787,2.787,0,0,0,107.008,33h-1.2A1.355,1.355,0,0,1,105.365,33.948ZM19.9,63.151a3.51,3.51,0,0,1-.633,1.288A1.55,1.55,0,0,1,18,64.944a5.468,5.468,0,0,1-1.046-.114l0.22,1.934a6.55,6.55,0,0,0,1.4.149,4.889,4.889,0,0,0,1.261-.149,2.961,2.961,0,0,0,.94-0.418,2.709,2.709,0,0,0,.677-0.7,6.639,6.639,0,0,0,.62-1.248l0.589-1.626,3.3-8.982H23.392l-2.18,6.627L18.98,53.791H16.352Zm6.812-.026h2.47v-3.92h3.533v3.92H35.2V53.791H32.718V57.21H29.185V53.791h-2.47v9.334Zm12.719-10.6V50.24h-2.47v2.285h2.47Zm0,10.6V53.791h-2.47v9.334h2.47Zm1.838,0h5.88a3.562,3.562,0,0,0,2.364-.681,2.216,2.216,0,0,0,.8-1.771,2.363,2.363,0,0,0-.475-1.424,2.418,2.418,0,0,0-1.441-.888,2.191,2.191,0,0,0,1.591-2.136,2.121,2.121,0,0,0-.826-1.828,4.2,4.2,0,0,0-2.487-.607H41.271v9.334Zm2.487-7.752h1.591a4.027,4.027,0,0,1,1.7.251,0.873,0.873,0,0,1,.479.839,0.975,0.975,0,0,1-.514.914,3.565,3.565,0,0,1-1.666.29H43.759V55.373Zm0,3.8h1.266a5.873,5.873,0,0,1,2.153.259,1.094,1.094,0,0,1,.07,1.859,3.47,3.47,0,0,1-1.538.255H43.759V59.17Zm12.4,2a1.512,1.512,0,0,1-.976.316,1.869,1.869,0,0,1-1.424-.611,2.5,2.5,0,0,1-.6-1.709h6.188A6.086,6.086,0,0,0,58.2,54.956a4.143,4.143,0,0,0-3.287-1.375,4,4,0,0,0-3.067,1.314,5.154,5.154,0,0,0-1.213,3.634,5.344,5.344,0,0,0,.923,3.217,4.176,4.176,0,0,0,3.6,1.591,4.4,4.4,0,0,0,2.562-.708,4.036,4.036,0,0,0,1.5-2.061l-2.461-.413A1.954,1.954,0,0,1,56.161,61.174Zm-2.953-3.516a2.279,2.279,0,0,1,.519-1.6,1.782,1.782,0,0,1,2.619-.031,2.379,2.379,0,0,1,.554,1.63H53.208Zm7.366,9.018h2.47v-4.7a4.721,4.721,0,0,0,1.323,1.055,3.145,3.145,0,0,0,1.4.308,3.56,3.56,0,0,0,2.769-1.3,5.315,5.315,0,0,0,1.143-3.634,5.159,5.159,0,0,0-1.134-3.551,3.559,3.559,0,0,0-2.76-1.274,3.344,3.344,0,0,0-1.7.439,3.449,3.449,0,0,0-1.213,1.143V53.791h-2.3V66.676ZM63.615,56.23a1.9,1.9,0,0,1,1.5-.7,1.822,1.822,0,0,1,1.459.712,3.374,3.374,0,0,1,.589,2.18,3.555,3.555,0,0,1-.571,2.263,1.784,1.784,0,0,1-1.433.69,1.909,1.909,0,0,1-1.52-.751,3.6,3.6,0,0,1-.624-2.325A3.11,3.11,0,0,1,63.615,56.23Zm14-1.916A4.509,4.509,0,0,0,74.9,53.58a4.339,4.339,0,0,0-3.3,1.288,5.02,5.02,0,0,0-1.222,3.6,5.008,5.008,0,0,0,1.217,3.577,4.272,4.272,0,0,0,3.265,1.292,4.489,4.489,0,0,0,2.874-.852,4.3,4.3,0,0,0,1.45-2.523l-2.426-.413a2.4,2.4,0,0,1-.633,1.375,1.664,1.664,0,0,1-1.151.4,1.832,1.832,0,0,1-1.5-.685,3.776,3.776,0,0,1-.558-2.347,3.265,3.265,0,0,1,.549-2.131,1.845,1.845,0,0,1,1.472-.637,1.685,1.685,0,0,1,1.129.369,1.767,1.767,0,0,1,.558,1.1l2.435-.439A4.066,4.066,0,0,0,77.612,54.314Zm2.536,8.811h2.373l3.85-5.968v5.968h2.373V53.791H86.318l-3.8,5.862V53.791H80.148v9.334Zm9.3-7.339h2.988v7.339h2.47V55.786h2.988v-2H89.448v2Zm14.01,5.388a1.512,1.512,0,0,1-.975.316,1.869,1.869,0,0,1-1.424-.611,2.5,2.5,0,0,1-.6-1.709h6.188a6.086,6.086,0,0,0-1.152-4.214,4.143,4.143,0,0,0-3.287-1.375,4,4,0,0,0-3.067,1.314,5.154,5.154,0,0,0-1.213,3.634,5.344,5.344,0,0,0,.923,3.217,4.175,4.175,0,0,0,3.6,1.591,4.4,4.4,0,0,0,2.562-.708,4.038,4.038,0,0,0,1.5-2.061l-2.461-.413A1.953,1.953,0,0,1,103.458,61.174Zm-2.953-3.516a2.276,2.276,0,0,1,.519-1.6,1.782,1.782,0,0,1,2.619-.031,2.378,2.378,0,0,1,.553,1.63h-3.691Zm6.092-1.872h2.988v7.339h2.47V55.786h2.988v-2H106.6v2Z"/>
</svg>
