<svg xmlns="http://www.w3.org/2000/svg" width="80" height="80" viewBox="0 0 80 80">
  <defs>
    <style>
      .cls-1 {
        fill: #0f355d;
        fill-rule: evenodd;
      }
    </style>
  </defs>
  <path id="logo" class="cls-1" d="M49.469,9.2h0.388a7.027,7.027,0,0,0-1.1,1.651c-1.114,2.826-.279,4.689-2.911,6.282a4.242,4.242,0,0,1-2.038.745c0.165-.72,1.093-1.623.55-2.655l-1.067.518c-2.19.616-3.2-.043-3.817,2.3-1.654-.316-3.572-2.462-2.2-4.306,0.986-1.325,2.969-1.257,4.755-1.813,0.548-.171.923-0.631,1.423-0.745,0.419,1.022-.329,1.7-0.582,2.428,2.012-.508,2.561-1.826,3.914-2.914A13.177,13.177,0,0,1,49.469,9.2Zm-14.1,9.714,9.769,0.032c0.612,0.092,2.857-.206,3.17.065a3.747,3.747,0,0,1-.032,1.716,2.522,2.522,0,0,0-1.035.13c-0.724.484-1.2,2.4-2.07,2.623l-5.079-.032a4.781,4.781,0,0,1-1.747-.065c-0.806-.52-1.186-2.317-2.135-2.687l-0.841-.032V18.914ZM17.38,22.282H32.066l-0.032,1.813c-3.5.236-3.138,3.883-3.138,7.609l0.032,12.725c0,2.913-.083,5.932.1,8.645H28.96l-1.391.389a18.72,18.72,0,0,1-4.981,1l-0.421-1.2a20,20,0,0,1-.485-2.526,37.6,37.6,0,0,1-.1-5.764L21.553,34.618c0-2.255.414-7.464-.388-8.84-0.7-1.193-1.985-1.739-3.785-1.813V22.282Zm33.771,0H61.793l-0.032,1.91a3.722,3.722,0,0,0-2.2.68c-1.9,1.259-1.456,3.536-1.456,6.573q-0.016,4.112-.032,8.225l-3.041,1.943H55V30.571c0-1.714.2-3.82-.485-4.857a3.9,3.9,0,0,0-3.364-1.522v-1.91Zm-6.793,2.169-0.615,8.613a11.828,11.828,0,0,0-3.591.065l-0.712-8.678h4.917ZM59.658,32c2.789-.048,5.495.437,4.755,3.627l-0.356,1.1c-1.049,2.407-3.883,4.85-6.017,6.217,0.508,11.288-3.182,18.211-10.06,22.213A17.63,17.63,0,0,1,25.531,60.2l-1.941-3.238c-2.666.05-6.692-.518-7.44-2.234a3.087,3.087,0,0,1,.421-2.59,14.669,14.669,0,0,1,4.723-4.663h0.032q-0.016.712-.032,1.425a12.583,12.583,0,0,0-3.752,3.594,1.547,1.547,0,0,0,.162,2.137,8.7,8.7,0,0,0,4.723.486,66.515,66.515,0,0,0,9.51-2.137,92.819,92.819,0,0,0,25.2-11.948c1.73-1.22,5.524-3.651,6.114-5.764,0.717-2.57-3.082-2.308-4.852-1.91v-1.2Zm-5.143.971a2.881,2.881,0,0,1,.065,1.23,20.444,20.444,0,0,0-4.011,1.2,2.824,2.824,0,0,1-1.423.389l-0.97-.648V35.1l3.979-1.457ZM44.39,37.986l-8.637,1.651-0.259-.356,1.585-3.5a4.035,4.035,0,0,1,.712-1.522l1.294-.421a10.9,10.9,0,0,1,7.634.68l-1.456,2.785A0.676,0.676,0,0,0,44.39,37.986Zm-7.116-3.465a3.339,3.339,0,0,1-.55,1.328l-1.456,3.335a1.147,1.147,0,0,0-.679.259L32.907,38.7l0.032-.1a15.7,15.7,0,0,1,2.232-2.687C35.819,35.4,36.615,35.049,37.274,34.521Zm9.639,0.162a1.449,1.449,0,0,1,.938.583l0.194,1.975-2.329.453L45.522,37.4Zm1.229,0.745a4.392,4.392,0,0,1,1.617,1.425,3.935,3.935,0,0,1-1.456.324Zm1.811,1.684c1.118,0.6,2.508,4.328,2.523,6.249l-3.429,1.781L48.5,39.378a8.588,8.588,0,0,1-.1-1.943Zm-2.006.389h0.129l0.712,7.8-0.679.324L43.1,43.361a1.065,1.065,0,0,0-.259-0.745l2.005-3.95a0.771,0.771,0,0,0,.97-0.745Zm-3.59.712a0.891,0.891,0,0,1,.259.291l-2.006,3.983a0.909,0.909,0,0,0-.809.259l-4.529-2.072a3.818,3.818,0,0,1-1.456-.712Zm-11.58.712L34.459,39.7l-0.065.259-2.264.421V40.35Zm1.65,1.263,0.259,0.291L33.23,43.685l-0.129-.1L31.807,41.58,32,40.673Zm1.294,0.1,5.952,2.688a2.618,2.618,0,0,0,.259.842L39.538,48.38c-0.49.96-.719,1.862-1.941,2.1l-2.976-4.63a5.757,5.757,0,0,1-1.2-1.943l1.456-3.3A0.834,0.834,0,0,0,35.721,40.285Zm-4.27,1.587-0.129,1.489-2.1,1.166a3.367,3.367,0,0,1,.065-1.392Zm0.259,0.065a8.309,8.309,0,0,1,1.391,2.1l-1.165,2.59H31.872A13.247,13.247,0,0,1,31.71,41.936Zm11.225,1.651,4.885,2.169-0.032.065L45.3,47.052,41.058,49l-2.006.874,3.105-5.99A0.916,0.916,0,0,0,42.934,43.588Zm-9.7.712A4.674,4.674,0,0,1,34.3,45.887l3.073,4.727-2.491.971a8.764,8.764,0,0,1-2.361-3.238,2.52,2.52,0,0,1-.485-1.36Zm21.737,0.842c-0.648.655-2.823,1.351-3.041,2.2l-0.356-.13-0.291.13v0.032L51.8,47.57c-0.146,1.283-1.469,2.633-2.135,3.5L49.6,51.035l-0.259-2.687-0.226.1c0.085,0.637.4,2.694,0.162,3.044-0.614.3-1.146,0.984-1.747,1.36a11.574,11.574,0,0,1-4.69,1.489,7.941,7.941,0,0,1-2.814-.13l-0.873-1.3-0.194.065V53.01l0.647,1v0.1H39.57c-0.4-.133-1.6-0.628-1.844-0.648L32.518,55.18l-2.814.777c1.03,4.135,5.08,7.137,9.057,8.386a12.162,12.162,0,0,0,7.472-.421c4-1.726,6.235-5.5,7.6-9.876a38.079,38.079,0,0,0,.938-4.177l0.162-2.04A9.035,9.035,0,0,0,54.968,45.142ZM43.031,54.726L42.773,58.58c-0.1.642,0.1,1.442-.388,1.684-0.842.488-1.119-.372-1.229-1.036l-0.421-4.533Z"/>
</svg>
