<svg xmlns="http://www.w3.org/2000/svg" width="50" height="50" viewBox="0 0 50 50">
<defs>
    <style>
      .cls-1 {
        fill: #fff;
      }

      .cls-2 {
        fill: #00315d;
        fill-rule: evenodd;
      }
    </style>
  </defs>
  <circle id="circle" class="cls-1" cx="25" cy="25" r="24.188"/>
  <path id="logo" class="cls-2" d="M38.669,23.488l-0.207.64a9.815,9.815,0,0,1-3.5,3.612c0.3,6.559-1.849,10.581-5.846,12.907a10.244,10.244,0,0,1-13.044-2.879l-1.128-1.882c-1.549.029-3.889-.3-4.323-1.3a1.793,1.793,0,0,1,.244-1.505,8.523,8.523,0,0,1,2.744-2.709h0.019l-0.019.828a7.313,7.313,0,0,0-2.18,2.088,0.9,0.9,0,0,0,.094,1.242,5.052,5.052,0,0,0,2.744.282A38.634,38.634,0,0,0,19.8,33.573,53.933,53.933,0,0,0,34.44,26.63c1.005-.709,3.21-2.121,3.552-3.349,0.417-1.493-1.791-1.341-2.819-1.11v-0.7l0.733-.094C37.526,21.353,39.1,21.635,38.669,23.488Zm-5.488,5.531c-0.325.329-1.486,0.9-1.878,1.373a6.041,6.041,0,0,1-7.931,3.47c-0.99.317-2.3,0.68-3.236,0.989L18.5,35.3c0.6,2.4,2.952,4.147,5.263,4.873a7.066,7.066,0,0,0,4.342-.245c2.326-1,3.623-3.194,4.417-5.738a22.1,22.1,0,0,0,.545-2.427l0.094-1.185A5.25,5.25,0,0,0,33.181,29.019Zm-7.311,8.786c-0.489.283-.651-0.216-0.714-0.6L24.911,34.57l1.335,0.019-0.15,2.239A1.259,1.259,0,0,1,25.869,37.806ZM35.85,17.242C34.748,17.973,35,19.3,35,21.061q-0.009,2.389-.019,4.779l-1.767,1.129H33.2V20.553c0-1,.118-2.22-0.282-2.822a2.263,2.263,0,0,0-1.955-.884v-1.11h6.184q-0.009.555-.019,1.11A2.164,2.164,0,0,0,35.85,17.242Zm-7.969-4.5a2.465,2.465,0,0,1-1.184.433c0.1-.418.635-0.943,0.319-1.543l-0.62.3c-1.272.358-1.86-.025-2.218,1.336-0.961-.184-2.076-1.43-1.278-2.5,0.573-.77,1.725-0.73,2.763-1.054,0.318-.1.536-0.367,0.827-0.433a1.747,1.747,0,0,1-.338,1.411C27.32,10.4,27.639,9.633,28.425,9a7.655,7.655,0,0,1,1.56-.865h0.226a4.079,4.079,0,0,0-.639.96C28.924,10.737,29.409,11.819,27.88,12.745Zm1.429,1.091a2.176,2.176,0,0,1-.019,1,1.468,1.468,0,0,0-.6.075c-0.421.281-.7,1.395-1.2,1.524l-2.951-.019a2.781,2.781,0,0,1-1.015-.038c-0.469-.3-0.689-1.347-1.241-1.562L21.791,14.8V13.78L27.467,13.8A10.5,10.5,0,0,1,29.309,13.836Zm-4.737,8.2L24.159,17h2.857l-0.357,5A6.876,6.876,0,0,0,24.572,22.039ZM29.8,23.582l-0.564-.376V23.187l2.312-.847,1.372-.4a1.672,1.672,0,0,1,.038.715,11.878,11.878,0,0,0-2.331.7A1.641,1.641,0,0,1,29.8,23.582Zm1.886,4.3c-0.963.538-3.013,1.665-4.905,2.569-1.68.8-3.98,1.691-5.308,2.188A6.055,6.055,0,1,1,31.683,27.884Zm-12.242.1-1.222.677a1.957,1.957,0,0,1,.038-0.809l1.259-.734Zm-1.41-6.773q0.009,3.7.019,7.394c0,1.692-.048,3.447.056,5.023H18.069l-0.808.226a10.878,10.878,0,0,1-2.895.583l-0.244-.7a11.625,11.625,0,0,1-.282-1.468,21.847,21.847,0,0,1-.056-3.349q-0.009-3.01-.019-6.021c0-1.31.241-4.337-.226-5.136a2.441,2.441,0,0,0-2.2-1.054V15.736h8.533q-0.009.527-.019,1.054C17.823,16.927,18.031,19.046,18.031,21.211Z"/>
</svg>
