<svg xmlns="http://www.w3.org/2000/svg" width="270" height="40" viewBox="0 0 270 40">
  <metadata><?xpacket begin="﻿" id="W5M0MpCehiHzreSzNTczkc9d"?>
<x:xmpmeta xmlns:x="adobe:ns:meta/" x:xmptk="Adobe XMP Core 5.6-c142 79.160924, 2017/07/13-01:06:39        ">
   <rdf:RDF xmlns:rdf="http://www.w3.org/1999/02/22-rdf-syntax-ns#">
      <rdf:Description rdf:about=""/>
   </rdf:RDF>
</x:xmpmeta>
                                                                                                    
                                                                                                    
                                                                                                    
                                                                                                    
                                                                                                    
                                                                                                    
                                                                                                    
                                                                                                    
                                                                                                    
                                                                                                    
                                                                                                    
                                                                                                    
                                                                                                    
                                                                                                    
                                                                                                    
                                                                                                    
                                                                                                    
                                                                                                    
                                                                                                    
                                                                                                    
                           
<?xpacket end="w"?></metadata>
<defs>
    <style>
      .cls-1 {
        fill: #00315d;
      }

      .cls-2 {
        fill: #fff;
      }

      .cls-2, .cls-3 {
        fill-rule: evenodd;
      }

      .cls-3 {
        fill: #0f355d;
      }
    </style>
  </defs>
  <circle id="circle" class="cls-1" cx="20.5" cy="19.5" r="14.125"/>
  <path id="logo" class="cls-2" d="M23.24,10.243h0.116a2.09,2.09,0,0,0-.328.492c-0.332.842-.083,1.4-0.867,1.871a1.263,1.263,0,0,1-.607.222,1.006,1.006,0,0,0,.164-0.791l-0.318.154c-0.652.184-.953-0.013-1.137,0.685a0.874,0.874,0,0,1-.655-1.283,2.607,2.607,0,0,1,1.416-.54c0.163-.051.275-0.188,0.424-0.222a0.9,0.9,0,0,1-.174.723,2.8,2.8,0,0,0,1.166-.868A3.925,3.925,0,0,1,23.24,10.243Zm-4.2,2.893,2.909,0.01a5.378,5.378,0,0,1,.944.019,1.116,1.116,0,0,1-.01.511,0.75,0.75,0,0,0-.308.039,4,4,0,0,1-.617.781l-1.512-.01a1.424,1.424,0,0,1-.52-0.019,5.705,5.705,0,0,0-.636-0.8l-0.25-.01V13.136Zm-5.356,1h4.374l-0.01.54c-1.041.07-.934,1.156-0.934,2.266l0.01,3.79c0,0.867-.025,1.767.029,2.575H17.132l-0.414.116a5.577,5.577,0,0,1-1.484.3l-0.125-.357a5.936,5.936,0,0,1-.144-0.752,11.2,11.2,0,0,1-.029-1.716q0-1.543-.01-3.086a9.246,9.246,0,0,0-.116-2.633,1.251,1.251,0,0,0-1.127-.54v-0.5Zm10.057,0H26.91q0,0.284-.01.569a1.109,1.109,0,0,0-.655.2c-0.564.375-.434,1.053-0.433,1.958q0,1.225-.01,2.449L24.9,19.9h-0.01V16.608a3.155,3.155,0,0,0-.145-1.446,1.16,1.16,0,0,0-1-.453V14.139Zm-2.023.646L21.535,17.35a3.52,3.52,0,0,0-1.069.019l-0.212-2.584h1.464Zm4.557,2.247c0.831-.014,1.636.13,1.416,1.08l-0.106.328a5.031,5.031,0,0,1-1.792,1.851c0.151,3.362-.948,5.423-3,6.615a5.25,5.25,0,0,1-6.686-1.475l-0.578-.964c-0.794.015-1.993-.154-2.216-0.665a0.919,0.919,0,0,1,.125-0.771,4.368,4.368,0,0,1,1.406-1.389h0.01l-0.01.424a3.747,3.747,0,0,0-1.117,1.07,0.461,0.461,0,0,0,.048.637,2.59,2.59,0,0,0,1.406.145,19.822,19.822,0,0,0,2.832-.636,27.642,27.642,0,0,0,7.5-3.558,4.97,4.97,0,0,0,1.821-1.716c0.214-.765-0.918-0.687-1.445-0.569V17.08Zm-1.532.289a0.857,0.857,0,0,1,.019.366,6.091,6.091,0,0,0-1.195.357,0.841,0.841,0,0,1-.424.116l-0.289-.193v-0.01l1.185-.434Zm-3.015,1.495-2.572.492L19.078,19.2,19.55,18.16a1.2,1.2,0,0,1,.212-0.453l0.385-.125a3.246,3.246,0,0,1,2.273.2l-0.433.829A0.2,0.2,0,0,0,21.727,18.816Zm-2.119-1.032a0.994,0.994,0,0,1-.164.4l-0.433.993a0.342,0.342,0,0,0-.2.077l-0.5-.222L18.317,19a4.675,4.675,0,0,1,.665-0.8C19.175,18.045,19.412,17.941,19.608,17.784Zm2.871,0.048a0.432,0.432,0,0,1,.279.174l0.058,0.588-0.694.135-0.058-.087Zm0.366,0.222a1.308,1.308,0,0,1,.482.424,1.171,1.171,0,0,1-.433.1Zm0.54,0.5a3.035,3.035,0,0,1,.751,1.861l-1.021.53-0.164-1.716a2.558,2.558,0,0,1-.029-0.579Zm-0.6.116h0.039L23.038,21l-0.2.1-1.493-.675a0.317,0.317,0,0,0-.077-0.222l0.6-1.176a0.23,0.23,0,0,0,.289-0.222Zm-1.069.212a0.265,0.265,0,0,1,.077.087l-0.6,1.186a0.271,0.271,0,0,0-.241.077l-1.349-.617a1.138,1.138,0,0,1-.434-0.212Zm-3.449.212,0.5,0.231-0.019.077-0.674.125V19.52Zm0.491,0.376,0.077,0.087-0.434.955-0.038-.029-0.385-.6,0.058-.27ZM19.146,19.5l1.773,0.8a0.779,0.779,0,0,0,.077.251l-0.713,1.36a0.852,0.852,0,0,1-.578.627l-0.886-1.379a1.718,1.718,0,0,1-.357-0.579L18.9,19.6A0.248,0.248,0,0,0,19.146,19.5Zm-1.272.473-0.038.444-0.626.347a1,1,0,0,1,.019-0.415Zm0.077,0.019a2.476,2.476,0,0,1,.414.627l-0.347.771H18A3.944,3.944,0,0,1,17.951,19.992Zm3.343,0.492,1.455,0.646-0.01.019L22,21.516l-1.262.579-0.6.26,0.925-1.784A0.273,0.273,0,0,0,21.294,20.484ZM18.4,20.7a1.393,1.393,0,0,1,.318.473l0.915,1.408-0.742.289a2.609,2.609,0,0,1-.7-0.964,0.751,0.751,0,0,1-.145-0.405Zm6.474,0.251a3.421,3.421,0,0,0-.906.656l-0.106-.038-0.087.038v0.01l0.154,0.058a2.553,2.553,0,0,1-.636,1.041l-0.019-.01L23.2,21.9l-0.067.029a3.018,3.018,0,0,1,.048.907c-0.183.088-.341,0.293-0.52,0.405a3.448,3.448,0,0,1-1.4.444,2.363,2.363,0,0,1-.838-0.039l-0.26-.386-0.058.019v0.01l0.193,0.3v0.029h-0.01c-0.12-.04-0.477-0.187-0.549-0.193l-1.551.511-0.838.231a3.9,3.9,0,0,0,2.7,2.5,3.621,3.621,0,0,0,2.225-.125A4.362,4.362,0,0,0,24.54,23.6a11.309,11.309,0,0,0,.279-1.244l0.048-.608A2.694,2.694,0,0,0,24.878,20.947ZM21.323,23.8l-0.077,1.147a0.645,0.645,0,0,1-.116.5c-0.251.145-.333-0.111-0.366-0.309l-0.125-1.35Z"/>
  <path id="text" class="cls-3" d="M48.493,22.054a2.027,2.027,0,0,1-1.388.513,2.219,2.219,0,0,1-1.777-.807,4.2,4.2,0,0,1-.684-2.707,3.921,3.921,0,0,1,.694-2.591,2.28,2.28,0,0,1,1.808-.8,2.07,2.07,0,0,1,2.112,1.682l2-.479a3.956,3.956,0,0,0-1.025-1.846,4.168,4.168,0,0,0-2.987-1.087,4.43,4.43,0,0,0-3.4,1.384A5.478,5.478,0,0,0,42.559,19.2a5.218,5.218,0,0,0,1.285,3.729,4.721,4.721,0,0,0,5.944.567,4.4,4.4,0,0,0,1.5-2.437l-1.962-.622A2.979,2.979,0,0,1,48.493,22.054ZM54.3,24.146a2.729,2.729,0,0,1-.492,1,1.206,1.206,0,0,1-.991.393,4.261,4.261,0,0,1-.813-0.089l0.171,1.5a5.094,5.094,0,0,0,1.087.116,3.8,3.8,0,0,0,.981-0.116,2.305,2.305,0,0,0,.731-0.325,2.1,2.1,0,0,0,.526-0.544,5.159,5.159,0,0,0,.482-0.971l0.458-1.265,2.563-6.986H57.018l-1.7,5.154-1.736-5.154H51.542Zm5.244-.02h1.641V19.347l1.688,4.778h1.641l1.771-4.778v4.778h1.634v-7.26H65.549l-1.818,5.059-1.8-5.059H59.547v7.26ZM74.31,17.272A3.507,3.507,0,0,0,72.2,16.7a3.375,3.375,0,0,0-2.57,1,3.905,3.905,0,0,0-.95,2.8,3.9,3.9,0,0,0,.947,2.782,3.323,3.323,0,0,0,2.54,1,3.491,3.491,0,0,0,2.235-.663,3.348,3.348,0,0,0,1.128-1.962l-1.887-.321a1.871,1.871,0,0,1-.492,1.07,1.294,1.294,0,0,1-.9.311,1.425,1.425,0,0,1-1.165-.533,2.937,2.937,0,0,1-.434-1.825,2.54,2.54,0,0,1,.427-1.658,1.436,1.436,0,0,1,1.145-.5,1.311,1.311,0,0,1,.879.287,1.375,1.375,0,0,1,.434.855l1.894-.342A3.162,3.162,0,0,0,74.31,17.272Zm2.061,6.853h4.122a3.645,3.645,0,0,0,2.164-.53,1.837,1.837,0,0,0,.721-1.582,2.06,2.06,0,0,0-.4-1.261,1.833,1.833,0,0,0-1.012-.708,7.087,7.087,0,0,0-1.743-.164H78.293V16.865H76.372v7.26Zm1.921-3.062h1.251a3.653,3.653,0,0,1,1.446.2,0.733,0.733,0,0,1,.407.725,0.962,0.962,0,0,1-.236.649,1.466,1.466,0,0,1-1.077.273H78.293V21.063ZM84.3,24.125h1.914v-3.1a0.972,0.972,0,0,1,.639.181,2.558,2.558,0,0,1,.509.817l0.957,2.1h2.065l-1.073-2q-0.041-.075-0.075-0.144A2.638,2.638,0,0,0,87.7,20.4a1.8,1.8,0,0,0,.964-1.237,1.985,1.985,0,0,1,.458-0.9,2.048,2.048,0,0,1,.971-0.144l-0.007-1.271q-0.54-.034-0.759-0.034a1.989,1.989,0,0,0-1.148.3,2.771,2.771,0,0,0-.807,1.374,3.888,3.888,0,0,1-.478,1.046,0.99,0.99,0,0,1-.677.294V16.865H84.3v7.26Zm6.474,0h1.846l2.994-4.642v4.642h1.846v-7.26H95.575l-2.953,4.56v-4.56H90.776v7.26Zm8.046,0h1.846l2.994-4.642v4.642h1.846v-7.26h-1.887l-2.953,4.56v-4.56H98.823v7.26Zm4.258-9.471a1.588,1.588,0,0,1-1.709,0,1.049,1.049,0,0,1-.341-0.735h-0.937a2.167,2.167,0,0,0,.653,1.459,2.332,2.332,0,0,0,2.96,0,2.172,2.172,0,0,0,.653-1.459h-0.937A1.054,1.054,0,0,1,103.081,14.654Zm13.167,11.385h1.566V22.553h-0.779V16.865h-5.859a18.431,18.431,0,0,1-.383,3.979,4.26,4.26,0,0,1-.813,1.709h-0.786v3.486h1.558V24.125h5.5v1.914Zm-4.388-3.486a7.665,7.665,0,0,0,.957-4.108h2.324l-0.007,4.108H111.86Zm10.452,0.055a1.175,1.175,0,0,1-.758.246,1.455,1.455,0,0,1-1.108-.475,1.946,1.946,0,0,1-.465-1.33h4.813a4.732,4.732,0,0,0-.9-3.278,3.221,3.221,0,0,0-2.556-1.07,3.107,3.107,0,0,0-2.386,1.022,4.008,4.008,0,0,0-.943,2.827,4.16,4.16,0,0,0,.717,2.5,3.249,3.249,0,0,0,2.8,1.237,3.424,3.424,0,0,0,1.993-.55,3.137,3.137,0,0,0,1.165-1.6l-1.914-.321A1.515,1.515,0,0,1,122.312,22.607Zm-2.3-2.734a1.768,1.768,0,0,1,.4-1.244,1.386,1.386,0,0,1,2.037-.024,1.853,1.853,0,0,1,.431,1.268h-2.871Zm5.729,7.014h1.921V23.23a3.656,3.656,0,0,0,1.028.82,2.45,2.45,0,0,0,1.091.239,2.769,2.769,0,0,0,2.153-1.008,4.136,4.136,0,0,0,.889-2.827,4.011,4.011,0,0,0-.882-2.762A2.769,2.769,0,0,0,129.8,16.7a2.6,2.6,0,0,0-1.319.342,2.68,2.68,0,0,0-.943.889V16.865h-1.791V26.887Zm2.365-8.125a1.473,1.473,0,0,1,1.169-.543,1.418,1.418,0,0,1,1.135.554,2.626,2.626,0,0,1,.458,1.7,2.766,2.766,0,0,1-.445,1.76,1.386,1.386,0,0,1-1.114.537,1.486,1.486,0,0,1-1.183-.584,2.8,2.8,0,0,1-.485-1.808A2.418,2.418,0,0,1,128.11,18.762Zm10.412,5.363v-3.1a0.9,0.9,0,0,1,.591.232,2.591,2.591,0,0,1,.454.766l0.91,2.1h2.064l-1.025-2A3.041,3.041,0,0,0,139.9,20.4a1.82,1.82,0,0,0,.963-1.237,1.993,1.993,0,0,1,.465-0.892,2.007,2.007,0,0,1,.971-0.147V16.852c-0.378-.023-0.634-0.034-0.766-0.034a2.037,2.037,0,0,0-1.131.287,2.774,2.774,0,0,0-.831,1.388,4.56,4.56,0,0,1-.488,1.1,0.666,0.666,0,0,1-.557.239V16.865h-1.908v2.967a0.7,0.7,0,0,1-.553-0.243,4.517,4.517,0,0,1-.493-1.1,2.715,2.715,0,0,0-.847-1.395,2.019,2.019,0,0,0-1.087-.28q-0.226,0-.793.034v1.271a2.005,2.005,0,0,1,.974.147,2.011,2.011,0,0,1,.461.892,1.823,1.823,0,0,0,.964,1.237,3.041,3.041,0,0,0-1.62,1.723l-1.025,2h2.064l0.916-2.1a4.293,4.293,0,0,1,.516-0.831,0.852,0.852,0,0,1,.523-0.167v3.1h1.908Zm6.522-5.752a1.373,1.373,0,0,1,.8-0.2,1.643,1.643,0,0,1,1.033.236,1,1,0,0,1,.273.79v0.191a10.44,10.44,0,0,1-1.866.472,6.428,6.428,0,0,0-1.528.448,1.923,1.923,0,0,0-.824.738,2.064,2.064,0,0,0-.294,1.1,2.025,2.025,0,0,0,.646,1.538,2.475,2.475,0,0,0,1.767.608,3.019,3.019,0,0,0,1.2-.239,3.465,3.465,0,0,0,1.052-.718q0.021,0.055.069,0.226,0.11,0.376.184,0.567h1.9a4.078,4.078,0,0,1-.345-0.974,7.725,7.725,0,0,1-.093-1.412l0.021-2.242a3.958,3.958,0,0,0-.257-1.719,1.906,1.906,0,0,0-.885-0.772,4.6,4.6,0,0,0-1.914-.3,3.705,3.705,0,0,0-2.133.506,2.713,2.713,0,0,0-1.011,1.559l1.743,0.315A1.4,1.4,0,0,1,145.044,18.373Zm2.1,2.649a3.8,3.8,0,0,1-.075.936,1.206,1.206,0,0,1-.458.636,1.665,1.665,0,0,1-.991.342,1.05,1.05,0,0,1-.766-0.294,0.94,0.94,0,0,1-.3-0.7,0.8,0.8,0,0,1,.376-0.677,3.525,3.525,0,0,1,1.046-.335,11.99,11.99,0,0,0,1.169-.294v0.383Zm3.241,3.1h4.573a2.772,2.772,0,0,0,1.839-.53,1.723,1.723,0,0,0,.622-1.377,1.839,1.839,0,0,0-.369-1.107,1.881,1.881,0,0,0-1.121-.691,1.7,1.7,0,0,0,1.237-1.661,1.648,1.648,0,0,0-.643-1.422,3.261,3.261,0,0,0-1.934-.472h-4.2v7.26Zm1.934-6.029h1.238a3.128,3.128,0,0,1,1.322.195,0.678,0.678,0,0,1,.373.653,0.758,0.758,0,0,1-.4.711,2.768,2.768,0,0,1-1.295.226h-1.238V18.1Zm0,2.953h0.985a4.573,4.573,0,0,1,1.675.2,0.851,0.851,0,0,1,.054,1.446,2.7,2.7,0,0,1-1.2.2h-1.518V21.049Zm6.017,3.076h1.92V21.076h2.749v3.049h1.927v-7.26H163.01v2.659h-2.749V16.865h-1.92v7.26Zm7.923,0h1.846l2.994-4.642v4.642h1.845v-7.26h-1.886l-2.953,4.56v-4.56h-1.846v7.26Zm8.046,0h1.846l2.994-4.642v4.642H181v-7.26h-1.887l-2.953,4.56v-4.56H174.31v7.26Zm4.259-9.471a1.588,1.588,0,0,1-1.709,0,1.054,1.054,0,0,1-.342-0.735h-0.936a2.167,2.167,0,0,0,.653,1.459,2.332,2.332,0,0,0,2.96,0,2.172,2.172,0,0,0,.653-1.459h-0.937A1.054,1.054,0,0,1,178.569,14.654Zm9.018,9.492a2.732,2.732,0,0,1-.492,1,1.208,1.208,0,0,1-.992.393,4.262,4.262,0,0,1-.813-0.089l0.171,1.5a5.093,5.093,0,0,0,1.087.116,3.809,3.809,0,0,0,.981-0.116,2.3,2.3,0,0,0,.731-0.325,2.117,2.117,0,0,0,.527-0.544,5.22,5.22,0,0,0,.482-0.971l0.458-1.265,2.563-6.986H190.3l-1.7,5.154-1.736-5.154h-2.044Zm5.3-.02h1.921V21.076h2.748v3.049h1.928v-7.26h-1.928v2.659h-2.748V16.865h-1.921v7.26Zm9.892-8.244V14.1h-1.92v1.777h1.92Zm0,8.244v-7.26h-1.92v7.26h1.92Zm1.43,0h4.573a2.772,2.772,0,0,0,1.839-.53,1.726,1.726,0,0,0,.622-1.377,1.839,1.839,0,0,0-.369-1.107,1.881,1.881,0,0,0-1.121-.691,1.7,1.7,0,0,0,1.237-1.661,1.648,1.648,0,0,0-.643-1.422,3.261,3.261,0,0,0-1.934-.472h-4.2v7.26Zm1.934-6.029h1.238a3.128,3.128,0,0,1,1.322.195,0.678,0.678,0,0,1,.373.653,0.758,0.758,0,0,1-.4.711,2.771,2.771,0,0,1-1.3.226h-1.238V18.1Zm0,2.953h0.985a4.563,4.563,0,0,1,1.674.2,0.851,0.851,0,0,1,.055,1.446,2.7,2.7,0,0,1-1.2.2h-1.518V21.049Zm9.646,1.559a1.175,1.175,0,0,1-.758.246,1.453,1.453,0,0,1-1.108-.475,1.946,1.946,0,0,1-.465-1.33h4.813a4.732,4.732,0,0,0-.9-3.278,3.221,3.221,0,0,0-2.556-1.07,3.107,3.107,0,0,0-2.386,1.022,4.008,4.008,0,0,0-.943,2.827,4.16,4.16,0,0,0,.717,2.5,3.249,3.249,0,0,0,2.8,1.237,3.426,3.426,0,0,0,1.993-.55,3.137,3.137,0,0,0,1.165-1.6l-1.914-.321A1.521,1.521,0,0,1,215.787,22.607Zm-2.3-2.734a1.773,1.773,0,0,1,.4-1.244,1.386,1.386,0,0,1,2.037-.024,1.853,1.853,0,0,1,.431,1.268H213.49Zm5.73,7.014h1.92V23.23a3.672,3.672,0,0,0,1.029.82,2.447,2.447,0,0,0,1.091.239,2.769,2.769,0,0,0,2.153-1.008,4.136,4.136,0,0,0,.889-2.827,4.011,4.011,0,0,0-.882-2.762,2.769,2.769,0,0,0-2.147-.991,2.6,2.6,0,0,0-1.319.342,2.672,2.672,0,0,0-.943.889V16.865H219.22V26.887Zm2.365-8.125a1.473,1.473,0,0,1,1.169-.543,1.415,1.415,0,0,1,1.134.554,2.62,2.62,0,0,1,.458,1.7,2.766,2.766,0,0,1-.444,1.76,1.388,1.388,0,0,1-1.114.537,1.486,1.486,0,0,1-1.183-.584,2.8,2.8,0,0,1-.485-1.808A2.418,2.418,0,0,1,221.585,18.762Zm10.887-1.49a3.508,3.508,0,0,0-2.109-.571,3.378,3.378,0,0,0-2.571,1,3.907,3.907,0,0,0-.95,2.8,3.9,3.9,0,0,0,.947,2.782,3.323,3.323,0,0,0,2.539,1,3.492,3.492,0,0,0,2.236-.663,3.348,3.348,0,0,0,1.128-1.962l-1.887-.321a1.875,1.875,0,0,1-.492,1.07,1.3,1.3,0,0,1-.9.311,1.425,1.425,0,0,1-1.165-.533,2.933,2.933,0,0,1-.434-1.825,2.539,2.539,0,0,1,.427-1.658,1.435,1.435,0,0,1,1.145-.5,1.309,1.309,0,0,1,.878.287,1.368,1.368,0,0,1,.434.855l1.894-.342A3.167,3.167,0,0,0,232.472,17.272Zm1.972,6.853h1.846l2.994-4.642v4.642h1.846v-7.26h-1.887l-2.953,4.56v-4.56h-1.846v7.26Zm7.233-5.708H244v5.708h1.921V18.417h2.325V16.865h-6.57v1.552Zm10.9,4.19a1.176,1.176,0,0,1-.759.246,1.453,1.453,0,0,1-1.107-.475,1.946,1.946,0,0,1-.465-1.33h4.813a4.737,4.737,0,0,0-.9-3.278A3.221,3.221,0,0,0,251.6,16.7a3.107,3.107,0,0,0-2.386,1.022,4.009,4.009,0,0,0-.944,2.827,4.16,4.16,0,0,0,.718,2.5,3.249,3.249,0,0,0,2.8,1.237,3.426,3.426,0,0,0,1.993-.55,3.143,3.143,0,0,0,1.165-1.6l-1.914-.321A1.521,1.521,0,0,1,252.574,22.607Zm-2.3-2.734a1.773,1.773,0,0,1,.4-1.244,1.386,1.386,0,0,1,2.037-.024,1.848,1.848,0,0,1,.43,1.268h-2.871Zm4.738-1.456h2.324v5.708h1.921V18.417h2.325V16.865h-6.57v1.552Z"/>
</svg>
